<svg width="40" height="40" viewBox="0 0 40 40" fill="none" xmlns="http://www.w3.org/2000/svg"><path d="M16.0903 6.08691C15.575 12.2705 15.3173 25.9516 18.4091 31.2077" stroke="#1CB0F6" stroke-width="2.6087" stroke-linecap="round"/><path d="M8.36084 10.7246C11.9679 10.8534 21.3463 10.8019 30.0034 9.56519" stroke="#1CB0F6" stroke-width="2.6087" stroke-linecap="round"/><path d="M24.2062 14.5894C24.1267 15.3314 23.9687 16.2686 23.7167 17.3243M23.7167 17.3243C22.7437 21.4003 20.3697 27.2423 15.7038 30.4348C9.82938 34.4541 7.84548 31.0789 7.58783 28.8889C7.26957 26.1836 8.74725 20.7729 14.9308 18.4541C16.7494 17.7267 20.3395 17.1138 23.7167 17.3243ZM23.7167 17.3243C25.1241 17.412 26.4946 17.6427 27.6845 18.0676C33.0951 20 36.9598 31.2077 21.5009 33.913" stroke="#1CB0F6" stroke-width="2.6087" stroke-linecap="round"/><path opacity="0.6" fill-rule="evenodd" clip-rule="evenodd" d="M31.0411 26.1429C31.078 25.9556 31.1036 25.7707 31.1192 25.5892C31.358 22.8031 29.3982 20.0648 27.2458 19.2961C26.489 19.0258 25.626 18.8382 24.7012 18.7241C23.7805 22.02 22.0139 26.1998 18.9636 29.3654C19.1411 29.8073 19.331 30.2024 19.5334 30.5464C19.8986 31.1673 19.6914 31.9668 19.0705 32.332C18.4495 32.6972 17.6501 32.49 17.2849 31.8691C17.1549 31.6481 17.0311 31.4162 16.9132 31.1744C16.7581 31.2894 16.6005 31.4018 16.4403 31.5114C13.3652 33.6154 10.8671 34.0882 8.96822 33.163C7.13417 32.2694 6.44589 30.3458 6.29244 29.0414L7.44577 28.9057L6.29244 29.0414C5.91475 25.8309 7.64551 19.8 14.4598 17.2378L14.5171 17.2152C14.508 16.9226 14.5003 16.6305 14.494 16.3394L17.0819 14.8452C17.0855 15.3895 17.0936 15.9397 17.1069 16.4927C18.7542 16.1612 20.7201 15.9539 22.6735 15.9805C22.7858 15.4012 22.8628 14.8847 22.9093 14.4505C22.986 13.7342 23.6289 13.2158 24.3452 13.2925C25.0614 13.3693 25.5799 14.0121 25.5031 14.7284C25.457 15.1591 25.3872 15.6438 25.292 16.1705C26.2729 16.3064 27.2334 16.5216 28.1232 16.8394C31.0458 17.8831 33.5014 21.0737 33.7303 24.5904L31.0411 26.1429ZM28.0576 8.5084L22.5922 11.6639C25.0786 11.4783 27.6626 11.2173 30.188 10.8565C30.9011 10.7546 31.3966 10.0939 31.2948 9.38079C31.1929 8.66766 30.5322 8.17214 29.8191 8.27402C29.2347 8.3575 28.6469 8.43552 28.0576 8.5084ZM8.88327 28.7366C8.63661 26.6399 9.73715 22.19 14.6487 19.9801C14.789 22.1312 15.0232 24.2559 15.3886 26.1783C15.5484 27.0191 15.7358 27.8357 15.9568 28.6081C15.6396 28.8732 15.3099 29.124 14.9672 29.3584C12.168 31.2736 10.737 31.1229 10.1109 30.8179C9.41995 30.4812 8.98746 29.6222 8.88327 28.7366ZM22.0242 18.5888C21.2571 21.1288 19.9941 24.0125 18.0948 26.3997C18.0451 26.1691 17.9973 25.9329 17.9514 25.6913C17.5748 23.7096 17.3406 21.4529 17.2111 19.137C18.5596 18.8356 20.2692 18.6125 22.0242 18.5888Z" fill="#84D8FF"/></svg>