<svg width="200" height="200" viewBox="0 0 200 200" fill="none" xmlns="http://www.w3.org/2000/svg">
  <!-- Main body (dark green) -->
  <circle cx="100" cy="100" r="70" fill="#285943" />
  
  <!-- Neck/chest area (lighter green) -->
  <path d="M70 130 Q 100 160 130 130 Q 115 170 85 170 Q 70 130 70 130" fill="#4E9F3D" />
  
  <!-- Head/crest (dark top) -->
  <path d="M85 70 Q 100 50 115 70 Q 115 40 100 35 Q 85 40 85 70" fill="#1A3A2A" />
  
  <!-- Red face area -->
  <path d="M85 65 Q 100 75 115 65 Q 115 85 100 95 Q 85 85 85 65" fill="#D22B2B" />
  
  <!-- White eyes -->
  <circle cx="90" cy="75" r="6" fill="white" />
  <circle cx="110" cy="75" r="6" fill="white" />
  
  <!-- Black pupils -->
  <circle cx="92" cy="75" r="3" fill="black" />
  <circle cx="108" cy="75" r="3" fill="black" />
  
  <!-- Beak -->
  <path d="M95 85 Q 100 95 105 85 L 100 95 Z" fill="#E5B25D" />
  
  <!-- Tail feathers -->
  <path d="M90 150 Q 70 190 60 170 Q 80 160 90 150" fill="#4E9F3D" />
  <path d="M100 160 Q 100 200 85 180 Q 95 170 100 160" fill="#285943" />
  <path d="M110 150 Q 130 190 140 170 Q 120 160 110 150" fill="#4E9F3D" />
  
  <!-- Wing hints -->
  <path d="M60 100 Q 40 110 55 130 Q 60 115 60 100" fill="#4E9F3D" opacity="0.8" />
  <path d="M140 100 Q 160 110 145 130 Q 140 115 140 100" fill="#4E9F3D" opacity="0.8" />
  
  <!-- Detailed breast pattern (simplified) -->
  <path d="M85 120 Q 100 130 115 120 Q 100 140 85 120" fill="#346B31" opacity="0.6" />
</svg> 