<svg width="16" height="16" viewBox="0 0 16 16" fill="none" xmlns="http://www.w3.org/2000/svg">
  <path d="M8 1.33331C11.6819 1.33331 14.6667 4.31808 14.6667 7.99998C14.6667 11.6819 11.6819 14.6666 8 14.6666C4.3181 14.6666 1.33333 11.6819 1.33333 7.99998C1.33333 4.31808 4.3181 1.33331 8 1.33331ZM2.66667 7.99998C2.66667 10.9455 5.05448 13.3333 8 13.3333C10.9455 13.3333 13.3333 10.9455 13.3333 7.99998C13.3333 5.05446 10.9455 2.66665 8 2.66665C5.05448 2.66665 2.66667 5.05446 2.66667 7.99998ZM11.0381 6.39656C11.1903 6.24437 11.1903 5.99893 11.0381 5.84674C10.886 5.69456 10.6405 5.69456 10.4883 5.84674L7.33334 8.99998L5.51144 7.17808C5.35925 7.02589 5.11382 7.02589 4.96163 7.17808C4.80944 7.33027 4.80944 7.5757 4.96163 7.72789L7.05844 9.8247C7.13438 9.90064 7.23386 9.93846 7.33334 9.93846C7.43282 9.93846 7.5323 9.90064 7.60824 9.8247L11.0381 6.39656Z" fill="white"/>
</svg> 